<svg xmlns="http://www.w3.org/2000/svg" xmlns:xlink="http://www.w3.org/1999/xlink" viewBox="0 0 232.27 231.42"><defs><style>.cls-1{fill:url(#Безымянный_градиент_2);}.cls-2{fill:#fff;}</style><linearGradient id="Безымянный_градиент_2" x1="41.78" y1="145.14" x2="272.52" y2="145.14" gradientTransform="translate(-67.44 16.79) rotate(-15.56)" gradientUnits="userSpaceOnUse"><stop offset="0" stop-color="#fff"/><stop offset="0"/></linearGradient></defs><title>logo-miyki</title><g id="Слой_1" data-name="Слой 1"><polygon class="cls-1" points="66.86 149.23 1.11 101.58 78.93 78.38 103.94 1.12 150.05 67.96 231.26 67.86 181.94 132.38 207.12 209.58 130.52 182.61 64.88 230.41 66.86 149.23"/><path d="M139.54,32.29l45.39,65.8.3.43h.53l79.92-.1-48.54,63.5-.32.42.16.5,24.79,76-75.39-26.55-.5-.17-.42.31-64.61,47.05,2-79.9V179l-.42-.31-64.72-46.9L114.26,109l.51-.15.16-.5,24.61-76.05m-.33-2.23L114,108,35.44,131.45l66.36,48.09-2,81.93,66.25-48.25,77.3,27.22-25.42-77.91,49.78-65.11-82,.1L139.21,30.06Z" transform="translate(-35.44 -30.06)"/></g><g id="Слой_2" data-name="Слой 2"><path class="cls-2" d="M120.74,125.8l-6.54,37.38h-8.49l4.4-25.23-7.8,25.24h-6L97,138.56l-4.32,24.65h-8.5l6.54-37.37,12.58,0q0,3.36-.24,7.94l-.28,9.51,5.28-17.46Z" transform="translate(-35.44 -30.06)"/><path class="cls-2" d="M141,163.14l-8.13,0,2.89-16.56-9.38,16.57h-8.5l5.36-30.64h8.13l-2.87,16.41,9.24-16.42h8.61Z" transform="translate(-35.44 -30.06)"/><path class="cls-2" d="M167.39,163.11h-8.13l2.89-16.55-9.38,16.56h-8.5l5.36-30.64h8.13l-2.87,16.42,9.24-16.43h8.62Zm-2-39.65h3.92a9.56,9.56,0,0,1-2.72,5.06,7.09,7.09,0,0,1-5.06,1.92,4.91,4.91,0,0,1-4.38-1.92,7,7,0,0,1-.93-5h3.92c-.18,2.11.5,3.17,2.06,3.16S164.81,125.57,165.37,123.46Z" transform="translate(-35.44 -30.06)"/><path class="cls-2" d="M185.28,132.46l-2.08,11.91q2.94,0,3.48-3.12l.91-5.19c.36-2.1.92-3.3,1.67-3.61h9a9.14,9.14,0,0,0-1.82,4.43l-.74,4.27a5.65,5.65,0,0,1-2.48,3.72,18.67,18.67,0,0,1-3.09,1.57,8.34,8.34,0,0,1-3.24.72c.52.1,1.49.35,2.89.76q4.52,1.51,3.85,5.33l-.94,5.38a7.18,7.18,0,0,0,.26,4.45h-9a5.37,5.37,0,0,1-.4-3.6l1.13-6.46q.54-3.12-2.44-3.11l-2.3,13.17-9.22,0,5.36-30.63Z" transform="translate(-35.44 -30.06)"/><path class="cls-2" d="M206.51,144.29h-8.75l.36-2.05a16.35,16.35,0,0,1,1.77-5.49,10,10,0,0,1,3.89-3.41,13.83,13.83,0,0,1,6.68-1.48c3.16,0,5.44.55,6.84,1.66a5.22,5.22,0,0,1,2.17,4.1,64.67,64.67,0,0,1-1.27,10L215.51,163h-9.07l.47-2.73a7.86,7.86,0,0,1-2.63,2.47,7,7,0,0,1-3.37.83,6.84,6.84,0,0,1-4.25-1.37q-1.8-1.38-1-6l.44-2.52c.4-2.29,1-3.86,1.9-4.69s2.84-1.8,5.89-2.91q4.92-1.81,5.35-2.44a7.29,7.29,0,0,0,.76-2.54,8.19,8.19,0,0,0,.19-3.12,1,1,0,0,0-1.06-.73,1.34,1.34,0,0,0-1.28.61,13.38,13.38,0,0,0-.79,3.18Zm2.22,4.2a9,9,0,0,0-3.08,2.75,12,12,0,0,0-.91,3.18,9,9,0,0,0-.23,3.07c.13.47.5.7,1.12.69a1.37,1.37,0,0,0,1.23-.54,9.6,9.6,0,0,0,.77-2.85Z" transform="translate(-35.44 -30.06)"/><rect class="cls-2" x="166.56" y="91.94" width="17" height="6"/></g></svg>