<svg xmlns="http://www.w3.org/2000/svg" xmlns:xlink="http://www.w3.org/1999/xlink" viewBox="0 0 232.27 231.42"><defs><style>.cls-1{fill:url(#Безымянный_градиент_2);}.cls-2{fill:#fff;}</style><linearGradient id="Безымянный_градиент_2" x1="41.78" y1="145.14" x2="272.52" y2="145.14" gradientTransform="translate(-67.44 16.79) rotate(-15.56)" gradientUnits="userSpaceOnUse"><stop offset="0" stop-color="#fff"/><stop offset="0"/></linearGradient></defs><title>logo-miyki</title><g id="Слой_1" data-name="Слой 1"><polygon class="cls-1" points="66.86 149.23 1.11 101.58 78.93 78.38 103.94 1.12 150.05 67.96 231.26 67.86 181.94 132.38 207.12 209.58 130.52 182.61 64.88 230.41 66.86 149.23"/><path d="M139.54,32.29l45.39,65.8.3.43h.53l79.92-.1-48.54,63.5-.32.42.16.5,24.79,76-75.39-26.55-.5-.17-.42.31-64.61,47.05,2-79.9V179l-.42-.31-64.72-46.9L114.26,109l.51-.15.16-.5,24.61-76.05m-.33-2.23L114,108,35.44,131.45l66.36,48.09-2,81.93,66.25-48.25,77.3,27.22-25.42-77.91,49.78-65.11-82,.1L139.21,30.06Z" transform="translate(-35.44 -30.06)"/></g><g id="Слой_2" data-name="Слой 2"><path class="cls-2" d="M117.43,125.41l-6,34.37H103.6l4.05-23.2-7.17,23.2H94.94l.69-22.67-4,22.68H83.83l6-34.37,11.57,0c0,2.07-.1,4.5-.22,7.31l-.26,8.74,4.86-16Z" transform="translate(-35.44 -30.06)"/><path class="cls-2" d="M136,159.75h-7.48l2.67-15.23-8.63,15.23-7.82,0,4.93-28.18h7.48l-2.64,15.1,8.5-15.11h7.92Z" transform="translate(-35.44 -30.06)"/><path class="cls-2" d="M160.32,159.71h-7.47l2.66-15.22-8.63,15.23h-7.81L144,131.57h7.48l-2.64,15.09,8.5-15.1h7.92Zm-1.86-36.46h3.61a8.78,8.78,0,0,1-2.5,4.65,6.57,6.57,0,0,1-4.65,1.77,4.55,4.55,0,0,1-4-1.77,6.45,6.45,0,0,1-.86-4.64h3.61c-.17,1.94.46,2.91,1.89,2.9S158,125.19,158.46,123.25Z" transform="translate(-35.44 -30.06)"/><path class="cls-2" d="M176.78,131.53l-1.91,10.95c1.79,0,2.86-1,3.19-2.87l.84-4.77c.33-1.93.85-3,1.53-3.32h8.26a8.38,8.38,0,0,0-1.66,4.08l-.69,3.93a5.19,5.19,0,0,1-2.28,3.41,17.63,17.63,0,0,1-2.84,1.45,7.81,7.81,0,0,1-3,.66c.48.09,1.36.32,2.66.7q4.14,1.39,3.53,4.89l-.86,5a6.58,6.58,0,0,0,.24,4.09l-8.26,0a4.91,4.91,0,0,1-.38-3.31l1-5.95c.34-1.9-.41-2.86-2.24-2.86l-2.12,12.12h-8.47l4.93-28.16Z" transform="translate(-35.44 -30.06)"/><path class="cls-2" d="M196.3,142.41h-8.05l.33-1.89a14.93,14.93,0,0,1,1.64-5,9,9,0,0,1,3.57-3.14,12.81,12.81,0,0,1,6.14-1.37q4.35,0,6.29,1.53a4.83,4.83,0,0,1,2,3.78,61.84,61.84,0,0,1-1.17,9.22l-2.47,14.14h-8.35l.44-2.51a7.2,7.2,0,0,1-2.42,2.27,6.38,6.38,0,0,1-3.1.76,6.29,6.29,0,0,1-3.91-1.26c-1.1-.84-1.41-2.68-.91-5.53l.4-2.31q.56-3.17,1.76-4.31t5.41-2.68q4.51-1.67,4.91-2.24a6.37,6.37,0,0,0,.71-2.33,7.74,7.74,0,0,0,.18-2.88.92.92,0,0,0-1-.67,1.21,1.21,0,0,0-1.18.57,12.41,12.41,0,0,0-.73,2.92Zm2,3.86a8.16,8.16,0,0,0-2.83,2.53,10.89,10.89,0,0,0-.84,2.93,8.19,8.19,0,0,0-.21,2.82.91.91,0,0,0,1,.63,1.25,1.25,0,0,0,1.14-.5,8.82,8.82,0,0,0,.71-2.62Z" transform="translate(-35.44 -30.06)"/><rect class="cls-2" x="157.56" y="92.94" width="17" height="5"/></g></svg>